<?xml version="1.0" encoding="UTF-8" standalone="no"?>
<svg
   xmlns:dc="http://purl.org/dc/elements/1.1/"
   xmlns:cc="http://creativecommons.org/ns#"
   xmlns:rdf="http://www.w3.org/1999/02/22-rdf-syntax-ns#"
   xmlns:svg="http://www.w3.org/2000/svg"
   xmlns="http://www.w3.org/2000/svg"
   xmlns:sodipodi="http://sodipodi.sourceforge.net/DTD/sodipodi-0.dtd"
   xmlns:inkscape="http://www.inkscape.org/namespaces/inkscape"
   id="svg4379"
   width="200"
   height="200"
   inkscape:version="0.92.4 5da689c313, 2019-01-14"
   sodipodi:docname="kde.svg"
   version="1.1"
   viewBox="0 0 200 200">
  <metadata
     id="metadata10">
    <rdf:RDF>
      <cc:Work
         rdf:about="">
        <dc:format>image/svg+xml</dc:format>
        <dc:type
           rdf:resource="http://purl.org/dc/dcmitype/StillImage" />
      </cc:Work>
    </rdf:RDF>
  </metadata>
  <defs
     id="defs8">
    <style
       type="text/css"
       id="current-color-scheme">
   .ColorScheme-Text { color:#dedede; } .ColorScheme-Highlight { color:#5294e2; } .ColorScheme-ButtonBackground { color:#dedede; }
  </style>
    <style
       type="text/css"
       id="style823" />
    <linearGradient
       id="linearGradient1005"
       x1=".73911"
       x2="16.388"
       y1="16.296"
       y2=".64687"
       gradientTransform="matrix(1.3858264,0,0,1.3858264,-1.781903,24.072991)"
       gradientUnits="userSpaceOnUse">
      <stop
         stop-color="#00a0ff"
         offset="0"
         id="stop820" />
      <stop
         stop-color="#37beff"
         offset="1"
         id="stop822" />
    </linearGradient>
    <linearGradient
       gradientTransform="matrix(3.779602,0,0,3.779602,-78.983767,21.880996)"
       id="linearGradient1072"
       x1="8.397"
       x2="8.397"
       y1="13.274"
       y2="3.3723"
       gradientUnits="userSpaceOnUse">
      <stop
         stop-color="#b7d8f5"
         offset="0"
         id="stop825" />
      <stop
         stop-color="#f8fcfd"
         offset="1"
         id="stop827" />
    </linearGradient>
    <radialGradient
       id="radialGradient1082"
       cx="8.4727"
       cy="3.9956"
       r="1.8772"
       gradientTransform="matrix(1.1816 1.0623e-7 -1.0451e-7 1.1624 -1.5383 -.64906)"
       gradientUnits="userSpaceOnUse">
      <stop
         stop-color="#fff"
         offset="0"
         id="stop830" />
      <stop
         stop-color="#fff"
         offset=".18"
         id="stop832" />
      <stop
         stop-color="#ddf0fc"
         offset=".6"
         id="stop834" />
      <stop
         stop-color="#badef9"
         offset="1"
         id="stop836" />
    </radialGradient>
    <filter
       id="filter1106"
       x="-.06"
       y="-.06"
       width="1.12"
       height="1.12"
       color-interpolation-filters="sRGB">
      <feGaussianBlur
         stdDeviation="0.093859583"
         id="feGaussianBlur839" />
    </filter>
  </defs>
  <sodipodi:namedview
     id="namedview39"
     bordercolor="#666666"
     borderopacity="1"
     gridtolerance="10"
     guidetolerance="10"
     inkscape:current-layer="svg4379"
     inkscape:cx="-13.147541"
     inkscape:cy="103.03056"
     inkscape:pageopacity="0"
     inkscape:pageshadow="2"
     inkscape:window-height="1017"
     inkscape:window-maximized="1"
     inkscape:window-width="1920"
     inkscape:window-x="0"
     inkscape:window-y="38"
     inkscape:zoom="1.9975"
     objecttolerance="10"
     pagecolor="#dfe2e4"
     showgrid="true"
     inkscape:snap-bbox="true"
     inkscape:bbox-nodes="true"
     inkscape:snap-bbox-edge-midpoints="true">
    <inkscape:grid
       id="grid839"
       type="xygrid" />
  </sodipodi:namedview>
  <g
     id="22-22-start-here-kde"
     transform="matrix(5.9090909,0,0,5.9090909,35,5)">
    <circle
       r="11"
       cy="11"
       cx="11"
       id="path822"
       style="opacity:0;fill:#ffffff;fill-opacity:1;stroke:none;stroke-width:1.24874103;stroke-linecap:round;stroke-linejoin:round;stroke-miterlimit:4;stroke-dasharray:none;stroke-opacity:1;paint-order:normal" />
    <path
       inkscape:connector-curvature="0"
       id="path846"
       d="M 11,0 C 4.924832,0 0,4.924832 0,11 c 0,1.318225 0.231826,2.5819 0.657422,3.753321 0.290031,0.798667 0.669244,1.55476 1.127214,2.255143 0.197096,0.302144 0.408421,0.594249 0.633788,0.874414 0.725911,0.904131 1.592296,1.690369 2.565235,2.327474 0.353808,0.231645 0.721413,0.443857 1.102148,0.633789 C 7.564237,21.584048 9.233729,22 11,22 c 1.766271,0 3.435048,-0.415979 4.913477,-1.155859 0.380707,-0.18989 0.74834,-0.402116 1.102148,-0.633789 0.960674,-0.628624 1.816443,-1.40297 2.536589,-2.292383 0.224951,-0.277919 0.436693,-0.567081 0.633788,-0.866536 0.47054,-0.712191 0.85998,-1.482255 1.15586,-2.29668 C 21.767513,13.582875 22,12.318668 22,11 22,9.68136 21.767569,8.417084 21.341862,7.245248 21.074711,6.509359 20.731461,5.809787 20.320638,5.156966 19.886076,4.46372 19.375205,3.822934 18.800977,3.245573 16.808396,1.241434 14.049572,0 11,0 Z m -7.16e-4,2.202865 A 2.6015253,2.6015253 0 0 1 13.58457,4.538933 C 16.14673,5.56826 17.963087,8.074489 17.963086,11 c 0,0.182206 -0.0134,0.361246 -0.02721,0.539974 a 2.6015253,2.6015253 0 0 1 1.631379,2.411979 2.6015253,2.6015253 0 0 1 -2.601757,2.601758 2.6015253,2.6015253 0 0 1 -1.332031,-0.370963 c -1.232634,1.10339 -2.853855,1.781054 -4.63418,1.781054 -1.780073,0 -3.401058,-0.677227 -4.633464,-1.780338 A 2.6015253,2.6015253 0 0 1 5.033076,16.553711 2.6015253,2.6015253 0 0 1 2.432034,13.951953 2.6015253,2.6015253 0 0 1 4.063414,11.539258 C 4.049634,11.360761 4.036204,11.181965 4.036204,11 4.036204,8.075287 5.851,5.569503 8.411855,4.539649 A 2.6015253,2.6015253 0 0 1 10.99929,2.202865 Z M 8.550781,5.67474 C 6.53467,6.600912 5.136198,8.630964 5.136198,11 c 0,0.120379 0.0108,0.238087 0.0179,0.356641 A 2.6015253,2.6015253 0 0 1 7.634827,13.951953 2.6015253,2.6015253 0 0 1 7.1679,15.43724 c 1.026999,0.887205 2.363641,1.426562 3.83138,1.426562 1.468468,0 2.805453,-0.539998 3.832812,-1.427994 a 2.6015253,2.6015253 0 0 1 -0.468359,-1.483855 2.6015253,2.6015253 0 0 1 2.481445,-2.596745 c 0.0071,-0.118086 0.0179,-0.235311 0.0179,-0.355208 0,-2.369036 -1.398982,-4.399088 -3.4153,-5.32526 A 2.6015253,2.6015253 0 0 1 10.999276,7.405664 2.6015253,2.6015253 0 0 1 8.550773,5.67474 Z"
       style="fill:#ffffff;fill-opacity:1;stroke-width:0.04296979" />
  </g>
  <g
     style="fill:#5e4aa6;stroke-width:0.26458001"
     transform="matrix(4.1231678,0,0,4.1231678,-378.28244,161.4866)"
     id="g856">
    <circle
       cx="-330.35001"
       cy="-328.38"
       r="0"
       id="circle848" />
    <circle
       cx="-312.10999"
       cy="-326.25"
       r="0"
       id="circle850" />
    <circle
       cx="-306.01999"
       cy="-333.07001"
       r="0"
       id="circle852" />
    <circle
       cx="-308.84"
       cy="-326.01001"
       r="0"
       id="circle854" />
  </g>
</svg>
