<?xml version="1.0" encoding="UTF-8"?>
<svg width="22" height="22" version="1.1" xmlns="http://www.w3.org/2000/svg" xmlns:cc="http://creativecommons.org/ns#" xmlns:dc="http://purl.org/dc/elements/1.1/" xmlns:rdf="http://www.w3.org/1999/02/22-rdf-syntax-ns#">
 <metadata>
  <rdf:RDF>
   <cc:Work rdf:about="">
    <dc:format>image/svg+xml</dc:format>
    <dc:type rdf:resource="http://purl.org/dc/dcmitype/StillImage"/>
    <dc:title/>
   </cc:Work>
  </rdf:RDF>
 </metadata>
 <defs>
  <style id="current-color-scheme" type="text/css">.ColorScheme-Text { color:#dedede; } .ColorScheme-Highlight { color:#5294e2; } .ColorScheme-ButtonBackground { color:#dedede; }</style>
  <style type="text/css"/>
 </defs>
 <path d="m-22.448 0c-6.0752 0-11 4.9248-11 11 0 1.3182 0.23183 2.5819 0.65742 3.7533 0.29003 0.79867 0.66924 1.5548 1.1272 2.2551 0.1971 0.30214 0.40842 0.59425 0.63379 0.87441 0.72591 0.90413 1.5923 1.6904 2.5652 2.3275 0.35381 0.23164 0.72141 0.44386 1.1021 0.63379 1.4784 0.73991 3.1479 1.1559 4.9142 1.1559s3.435-0.41598 4.9135-1.1559c0.38071-0.18989 0.74834-0.40212 1.1021-0.63379 0.96067-0.62862 1.8164-1.403 2.5366-2.2924 0.22495-0.27792 0.43669-0.56708 0.63379-0.86654 0.47054-0.71219 0.85998-1.4823 1.1559-2.2967 0.42565-1.1719 0.65814-2.4361 0.65814-3.7548 0-1.3186-0.23243-2.5829-0.65814-3.7548-0.26715-0.73589-0.6104-1.4355-1.0212-2.0883-0.43456-0.69325-0.94543-1.334-1.5197-1.9114-1.9926-2.0041-4.7514-3.2456-7.801-3.2456zm-7.16e-4 2.2029a2.6015 2.6015 0 0 1 2.5853 2.3361c2.5622 1.0293 4.3785 3.5356 4.3785 6.4611 0 0.18221-0.0134 0.36125-0.02721 0.53997a2.6015 2.6015 0 0 1 1.6314 2.412 2.6015 2.6015 0 0 1-2.6018 2.6018 2.6015 2.6015 0 0 1-1.332-0.37096c-1.2326 1.1034-2.8539 1.7811-4.6342 1.7811-1.7801 0-3.4011-0.67723-4.6335-1.7803a2.6015 2.6015 0 0 1-1.3327 0.37025 2.6015 2.6015 0 0 1-2.601-2.6018 2.6015 2.6015 0 0 1 1.6314-2.4127c-0.01378-0.1785-0.02721-0.35729-0.02721-0.53926 0-2.9247 1.8148-5.4305 4.3757-6.4604a2.6015 2.6015 0 0 1 2.5874-2.3368zm-2.4485 3.4719c-2.0161 0.92617-3.4146 2.9562-3.4146 5.3253 0 0.12038 0.0108 0.23809 0.0179 0.35664a2.6015 2.6015 0 0 1 2.4807 2.5953 2.6015 2.6015 0 0 1-0.46693 1.4853c1.027 0.8872 2.3636 1.4266 3.8314 1.4266 1.4685 0 2.8055-0.54 3.8328-1.428a2.6015 2.6015 0 0 1-0.46836-1.4839 2.6015 2.6015 0 0 1 2.4814-2.5967c0.0071-0.11809 0.0179-0.23531 0.0179-0.35521 0-2.369-1.399-4.3991-3.4153-5.3253a2.6015 2.6015 0 0 1-2.4485 1.7309 2.6015 2.6015 0 0 1-2.4485-1.7309z" fill="#fff" stroke-width=".04297"/>
 <g transform="matrix(4.1232 0 0 4.1232 -171.92 22.67)" fill="#5e4aa6" stroke-width=".26458">
  <circle cx="-330.35" cy="-328.38" r="0"/>
  <circle cx="-312.11" cy="-326.25" r="0"/>
  <circle cx="-306.02" cy="-333.07" r="0"/>
  <circle cx="-308.84" cy="-326.01" r="0"/>
 </g>
 <g id="22-22-start-here-kde">
  <circle cx="11" cy="11" r="11" opacity="0" stroke-width="1.2487" style="paint-order:normal"/>
  <g fill="#fff">
   <path d="m14.769 0.18559-2.4103 2.4103 4.8206 4.8206-4.8206 4.8206 2.4103 2.4103 7.231-7.231-2.4103-2.4103z" stroke-width=".69702"/>
   <circle cx="6.4218" cy="1.4704" r="1.3939" stroke-width="2.3284"/>
   <circle cx="2.5065" cy="9.744" r="2.5065" stroke-width="4.1869"/>
   <circle cx="8.7724" cy="18.228" r="3.6959" stroke-width="6.1738"/>
  </g>
 </g>
</svg>
