<?xml version="1.0" encoding="UTF-8" standalone="no"?>
<svg
   xmlns:dc="http://purl.org/dc/elements/1.1/"
   xmlns:cc="http://creativecommons.org/ns#"
   xmlns:rdf="http://www.w3.org/1999/02/22-rdf-syntax-ns#"
   xmlns:svg="http://www.w3.org/2000/svg"
   xmlns="http://www.w3.org/2000/svg"
   xmlns:xlink="http://www.w3.org/1999/xlink"
   xmlns:sodipodi="http://sodipodi.sourceforge.net/DTD/sodipodi-0.dtd"
   xmlns:inkscape="http://www.inkscape.org/namespaces/inkscape"
   id="svg2"
   width="32"
   height="32"
   version="1.1"
   viewBox="0 0 32 32"
   sodipodi:docname="system.svg"
   inkscape:version="0.92.4 5da689c313, 2019-01-14">
  <metadata
     id="metadata59">
    <rdf:RDF>
      <cc:Work
         rdf:about="">
        <dc:format>image/svg+xml</dc:format>
        <dc:type
           rdf:resource="http://purl.org/dc/dcmitype/StillImage" />
        <dc:title />
      </cc:Work>
    </rdf:RDF>
  </metadata>
  <sodipodi:namedview
     pagecolor="#c8c8c8"
     bordercolor="#666666"
     borderopacity="1"
     objecttolerance="10"
     gridtolerance="10"
     guidetolerance="10"
     inkscape:pageopacity="0"
     inkscape:pageshadow="2"
     inkscape:window-width="1920"
     inkscape:window-height="1017"
     id="namedview57"
     showgrid="true"
     inkscape:zoom="4"
     inkscape:cx="39.156589"
     inkscape:cy="47.674933"
     inkscape:window-x="0"
     inkscape:window-y="38"
     inkscape:window-maximized="1"
     inkscape:current-layer="svg2"
     inkscape:snap-bbox="true"
     inkscape:bbox-nodes="true"
     inkscape:snap-nodes="false"
     inkscape:snap-smooth-nodes="false"
     inkscape:snap-global="true"
     inkscape:snap-bbox-edge-midpoints="true"
     inkscape:object-nodes="false"
     inkscape:snap-others="false">
    <inkscape:grid
       type="xygrid"
       id="grid862" />
  </sodipodi:namedview>
  <defs
     id="defs87">
    <style
       id="current-color-scheme"
       type="text/css">
   .ColorScheme-Text { color:#dedede; } .ColorScheme-Highlight { color:#5294e2; } .ColorScheme-ButtonBackground { color:#dedede; }
  </style>
    <style
       id="current-color-scheme-6"
       type="text/css" />
    <linearGradient
       id="a">
      <stop
         id="stop945"
         stop-color="#fff"
         offset="0" />
      <stop
         id="stop947"
         stop-opacity=".235"
         stop-color="#fff"
         offset=".508" />
      <stop
         id="stop949"
         stop-opacity=".157"
         stop-color="#fff"
         offset=".835" />
      <stop
         id="stop951"
         stop-opacity=".392"
         stop-color="#fff"
         offset="1" />
    </linearGradient>
    <linearGradient
       id="c">
      <stop
         id="stop954"
         stop-color="#3d3d3d"
         offset="0" />
      <stop
         id="stop956"
         stop-opacity=".498"
         stop-color="#686868"
         offset=".5" />
      <stop
         id="stop958"
         stop-opacity="0"
         stop-color="#686868"
         offset="1" />
    </linearGradient>
    <linearGradient
       id="b">
      <stop
         id="stop961"
         stop-color="#919caf"
         offset="0" />
      <stop
         id="stop963"
         stop-color="#68758e"
         offset=".262" />
      <stop
         id="stop965"
         stop-color="#485a6c"
         offset=".705" />
      <stop
         id="stop967"
         stop-color="#444c5c"
         offset="1" />
    </linearGradient>
    <style
       id="style924"
       type="text/css" />
    <style
       id="style923"
       type="text/css" />
    <style
       type="text/css"
       id="current-color-scheme-3">.ColorScheme-Text { color:#dedede; } .ColorScheme-Highlight { color:#5294e2; } .ColorScheme-ButtonBackground { color:#dedede; }</style>
    <filter
       color-interpolation-filters="sRGB"
       height="1.072"
       width="1.072"
       y="-.036"
       x="-.036"
       id="a-6">
      <feGaussianBlur
         id="feGaussianBlur3"
         stdDeviation="0.43506" />
    </filter>
    <style
       type="text/css"
       id="style835" />
    <style
       type="text/css"
       id="style822" />
    <linearGradient
       gradientUnits="userSpaceOnUse"
       y2="-32"
       x2="52"
       y1="0"
       x1="52"
       id="linearGradient4672"
       xlink:href="#linearGradient1343"
       inkscape:collect="always"
       gradientTransform="translate(-197,33.5)" />
    <linearGradient
       id="linearGradient1343"
       x1="32"
       x2="32"
       y1="2"
       y2="62"
       gradientTransform="matrix(0.53333333,0,0,0.53333333,46.628051,-10.632912)"
       gradientUnits="userSpaceOnUse">
      <stop
         stop-color="#f5f6fa"
         offset="0"
         id="stop3456" />
      <stop
         stop-color="#e9ecf3"
         offset=".45933"
         id="stop3458" />
      <stop
         stop-color="#dee2ee"
         offset="1"
         id="stop3460" />
    </linearGradient>
    <linearGradient
       inkscape:collect="always"
       xlink:href="#linearGradient1343"
       id="linearGradient993"
       gradientUnits="userSpaceOnUse"
       gradientTransform="translate(-112.99942,44)"
       x1="52"
       y1="0"
       x2="52"
       y2="-32" />
    <linearGradient
       inkscape:collect="always"
       xlink:href="#linearGradient1343"
       id="linearGradient1045"
       gradientUnits="userSpaceOnUse"
       gradientTransform="translate(-157)"
       x1="52"
       y1="0"
       x2="52"
       y2="-32" />
    <linearGradient
       inkscape:collect="always"
       xlink:href="#linearGradient1343"
       id="linearGradient1072"
       gradientUnits="userSpaceOnUse"
       gradientTransform="translate(-78,44)"
       x1="52"
       y1="0"
       x2="52"
       y2="-32" />
    <linearGradient
       inkscape:collect="always"
       xlink:href="#linearGradient1343"
       id="linearGradient1112"
       gradientUnits="userSpaceOnUse"
       gradientTransform="translate(-37,40)"
       x1="52"
       y1="0"
       x2="52"
       y2="-32" />
    <linearGradient
       inkscape:collect="always"
       xlink:href="#linearGradient1343"
       id="linearGradient1138"
       gradientUnits="userSpaceOnUse"
       gradientTransform="translate(3,35)"
       x1="52"
       y1="0"
       x2="52"
       y2="-32" />
    <linearGradient
       inkscape:collect="always"
       xlink:href="#linearGradient1343"
       id="linearGradient1235"
       gradientUnits="userSpaceOnUse"
       gradientTransform="translate(47,39)"
       x1="52"
       y1="0"
       x2="52"
       y2="-32" />
  </defs>
  <g
     id="22-22-system-suspend"
     transform="translate(-158.62305,-988.36218)">
    <rect
       id="rect4222"
       width="22"
       height="22"
       x="0"
       y="1030.36"
       style="opacity:0.00100002;fill:currentColor;fill-opacity:1;stroke:none;stroke-width:2;stroke-linecap:round;stroke-linejoin:round;stroke-miterlimit:4;stroke-dasharray:none;stroke-opacity:1" />
    <g
       id="g4380"
       transform="matrix(1.0009385,0,0,0.99883233,-322.31608,1012.4029)"
       style="display:inline;opacity:1;fill:currentColor;fill-opacity:1">
      <path
         id="path4398"
         class="ColorScheme-Text"
         d="M 8.0449219,2 C 5.4709885,1.9800034 3.1612109,3.6075004 2.3203125,6.0351562 2.0969331,6.6800174 1.9985687,7.3426625 2,8 1.9989991,8.6573375 2.0969831,9.3199826 2.3203125,9.9648438 3.1612109,12.3925 5.4709885,14.02 8.0449219,14 10.618845,13.980003 12.900212,12.315429 13.703125,9.875 13.906195,9.2577756 14.001361,8.6263907 14,8 14.001001,7.3736093 13.906205,6.7422244 13.703125,6.125 12.900212,3.684571 10.618845,2.0199966 8.0449219,2 Z M 8.0292969,3.9980469 C 9.7515617,4.0114312 11.263538,5.1131547 11.800781,6.7460938 11.936599,7.1589011 12.00029,7.582557 12,8 12.00029,8.417443 11.936639,8.8410989 11.800781,9.2539062 11.263538,10.886845 9.7515617,11.988573 8.0292969,12.001953 6.307032,12.015337 4.7736051,10.936893 4.2109375,9.3125 4.0615674,8.8812761 3.9955932,8.4378711 3.9960938,8 3.9955932,7.5621289 4.0615574,7.1187239 4.2109375,6.6875 4.7736051,5.0631071 6.307032,3.9846625 8.0292969,3.9980469 Z M 5.8554688,7 C 5.3807835,7 5,7.446 5,8 5,8.554 5.3807835,9 5.8554688,9 H 10.142578 C 10.61726,9 11,8.554 11,8 11,7.446 10.61726,7 10.142578,7 Z"
         transform="matrix(0.99906238,0,0,1.001169,325.01106,20.983802)"
         style="fill:#ffffff;fill-opacity:1"
         inkscape:connector-curvature="0" />
    </g>
  </g>
  <g
     id="22-22-system-switch-user"
     transform="translate(85.376952,-988.36218)">
    <rect
       id="rect4220"
       width="22"
       height="22"
       x="0"
       y="1030.36"
       style="opacity:0.00100002;fill:currentColor;fill-opacity:1;stroke:none;stroke-width:2;stroke-linecap:round;stroke-linejoin:round;stroke-miterlimit:4;stroke-dasharray:none;stroke-opacity:1" />
    <path
       id="path4481"
       class="ColorScheme-Text"
       d="m 10.9943,1035.362 c -1.8700303,0 -3.3939153,1.5345 -3.4492153,3.4512 -0.0459,0.012 -0.0915,0.033 -0.13476,0.055 -0.43005,0.227 -0.54034,0.9343 -0.2461,1.5899 0.23672,0.5274 0.65753,0.8538 1.03906,0.8437 0.28723,1.7528 1.430425,3.0606 2.7910153,3.0606 h 0.0117 c 1.36059,0 2.5038,-1.3078 2.79102,-3.0606 0.38154,0.01 0.80234,-0.3163 1.03906,-0.8437 0.29424,-0.6556 0.18394,-1.3629 -0.24609,-1.5899 -0.0433,-0.023 -0.0888,-0.044 -0.13477,-0.055 -0.0553,-1.9167 -1.57919,-3.4512 -3.44922,-3.4512 z m 2.40039,8 c -0.28889,0.7005 -1.27408,1.2246 -2.44922,1.2246 -1.1698503,0 -2.1455953,-0.5173 -2.4394453,-1.2129 -2.46908,0.2581 -4.26818,0.8896 -4.48438,1.6367 -0.003,0.01 0.002,0.016 0,0.024 -0.007,0.026 -0.007,0.049 -0.01,0.076 -10e-4,0.012 -0.0117,0.021 -0.0117,0.035 -9e-5,0 0,0.011 0,0.012 v 1.8477 c 0,0.1976 0.15571,0.3574 0.34961,0.3574 H 17.65034 c 0.1939,0 0.3496,-0.1598 0.3496,-0.3574 v -1.8477 c 0,-0.01 3.5e-4,-0.015 0,-0.023 -0.002,-0.043 -0.0208,-0.081 -0.0332,-0.123 -0.22075,-0.7563 -2.05842,-1.3964 -4.57226,-1.6484 z"
       style="fill:#ffffff;fill-opacity:1"
       inkscape:connector-curvature="0" />
  </g>
  <g
     id="22-22-system-shutdown"
     transform="translate(-77.623048,-988.36218)">
    <rect
       id="rect4229"
       width="22"
       height="22"
       x="0"
       y="1030.36"
       style="opacity:0.00100002;fill:currentColor;fill-opacity:1;stroke:none;stroke-width:2;stroke-linecap:round;stroke-linejoin:round;stroke-miterlimit:4;stroke-dasharray:none;stroke-opacity:1" />
    <path
       id="rect4324"
       class="ColorScheme-Text"
       d="m 11.000336,1034.362 c -0.553987,0 -0.99995,0.4462 -0.99995,1 v 5.0019 c 0,0.5538 0.445963,0.9981 0.99995,0.9981 0.553988,0 0.99995,-0.4443 0.99995,-0.9981 v -5.0019 c 0,-0.5538 -0.445962,-1 -0.99995,-1 z m 2.939305,1.9902 a 1.000176,0.99982748 0 0 0 -0.542942,1.8086 c 1.377976,1.0304 1.941017,2.8148 1.404226,4.4492 -0.536779,1.6344 -2.050513,2.7386 -3.771293,2.752 -1.7207811,0.013 -3.2501263,-1.0675 -3.8123083,-2.6934 -0.562183,-1.6258 -0.02587,-3.419 1.335869,-4.4707 a 1.000176,0.99982748 0 1 0 -1.222594,-1.582 c -2.035135,1.5718 -2.842036,4.2772 -2.001852,6.707 0.840173,2.4298 3.144793,4.0591 5.7165093,4.0391 2.571705,-0.02 4.853744,-1.6863 5.655965,-4.1289 0.80223,-2.4426 -0.04794,-5.1339 -2.107316,-6.6739 a 1.000176,0.99982748 0 0 0 -0.654264,-0.207 z"
       style="fill:#ffffff;fill-opacity:1"
       inkscape:connector-curvature="0" />
  </g>
  <g
     id="22-22-system-reboot"
     transform="rotate(-90,-541.99151,605.99151)">
    <rect
       id="rect4235"
       width="22"
       height="22"
       x="0"
       y="1030.36"
       style="opacity:0.00100002;fill:currentColor;fill-opacity:1;stroke:none;stroke-width:2;stroke-linecap:round;stroke-linejoin:round;stroke-miterlimit:4;stroke-dasharray:none;stroke-opacity:1" />
    <g
       id="layer12"
       transform="matrix(1.0009385,0,0,0.99883233,-322.31609,1012.4029)"
       style="display:inline;opacity:1;fill:currentColor;fill-opacity:1">
      <path
         id="path6796"
         class="ColorScheme-Text"
         d="M 8.0449219,2 C 5.4709885,1.98 3.161211,3.6075002 2.3203125,6.0351562 2.0969411,6.6800174 1.998566,7.342662 2,8 1.998566,8.657338 2.0969411,9.3199826 2.3203125,9.9648438 3.161211,12.3925 5.4709885,14.02 8.0449219,14 10.618845,13.980003 12.900212,12.315429 13.703125,9.875 13.906197,9.2577753 14.001356,8.626391 14,8 14.001356,7.373609 13.906197,6.7422247 13.703125,6.125 12.900212,3.6845712 10.618845,2.019997 8.0449219,2 Z M 8.0292969,3.9980469 C 9.7515617,4.0114279 11.263537,5.1131547 11.800781,6.7460938 11.9366,7.1589017 12.00029,7.5825571 12,8 12.00029,8.4174429 11.936599,8.8410983 11.800781,9.2539062 11.263537,10.886845 9.7515617,11.988572 8.0292969,12.001953 6.307032,12.015337 4.773605,10.936893 4.2109375,9.3125 4.0615674,8.881276 3.995597,8.4378713 3.9960938,8 3.995597,7.5621287 4.0615674,7.118724 4.2109375,6.6875 4.773605,5.0631072 6.307032,3.9846629 8.0292969,3.9980469 Z M 6.4746094,6 A 0.4736353,0.52746185 0 0 0 6.0625,6.7890625 L 7.5898438,9.734375 A 0.4736353,0.52746185 0 0 0 7.9746094,10 0.4736353,0.52746185 0 0 0 8.0234375,10 0.4736353,0.52746185 0 0 0 8.4101562,9.734375 L 9.9375,6.7890625 A 0.4736353,0.52746185 0 0 0 9.5273438,6 Z"
         transform="matrix(0.99906238,0,0,1.001169,325.01107,20.983802)"
         style="fill:#ffffff;fill-opacity:1"
         inkscape:connector-curvature="0" />
    </g>
  </g>
  <g
     id="22-22-system-suspend-hibernate"
     transform="translate(-35.623048,-988.36218)">
    <rect
       id="rect4248"
       width="22"
       height="22"
       x="0"
       y="1030.36"
       style="opacity:0.00100002;fill:currentColor;fill-opacity:1;stroke:none;stroke-width:2;stroke-linecap:round;stroke-linejoin:round;stroke-miterlimit:4;stroke-dasharray:none;stroke-opacity:1" />
    <g
       id="g4447"
       transform="matrix(1.0009385,0,0,0.99883233,-322.31607,1012.4029)"
       style="display:inline;opacity:1;fill:currentColor;fill-opacity:1">
      <path
         id="path4455"
         class="ColorScheme-Text"
         d="M 80.044922,2 C 77.470989,1.9800034 75.161212,3.6075014 74.320312,6.0351562 74.096933,6.6800174 73.998569,7.3426625 74,8 73.999,8.6573375 74.09698,9.3199826 74.320312,9.9648438 75.161212,12.3925 77.470989,14.02 80.044922,14 82.618845,13.98 84.900212,12.315429 85.703125,9.875 85.906195,9.2577756 86.001361,8.6263907 86,8 86.001001,7.3736093 85.906205,6.7422244 85.703125,6.125 84.900212,3.684571 82.618845,2.0199966 80.044922,2 Z m -0.01563,1.9980469 c 1.722265,0.013384 3.234241,1.1151078 3.771484,2.7480469 C 83.936599,7.1589011 84.00029,7.582557 84,8 84.00029,8.417443 83.936639,8.8410989 83.800781,9.2539062 83.263538,10.886845 81.751562,11.988574 80.029297,12.001953 78.307032,12.015337 76.773605,10.936893 76.210938,9.3125 76.061566,8.8812761 75.995593,8.4378711 75.996094,8 75.995593,7.5621289 76.061556,7.1187239 76.210938,6.6875 76.773605,5.0631071 78.307032,3.9846625 80.029297,3.9980469 Z M 80,6 a 2,2 0 0 0 -2,2 2,2 0 0 0 2,2 2,2 0 0 0 2,-2 2,2 0 0 0 -2,-2 z"
         transform="matrix(0.99906238,0,0,1.001169,253.07856,20.983802)"
         style="fill:#ffffff;fill-opacity:1"
         inkscape:connector-curvature="0" />
    </g>
  </g>
  <g
     id="22-22-system-lock-screen"
     transform="translate(45.376952,-988.36218)">
    <rect
       id="rect4255"
       width="22"
       height="22"
       x="0"
       y="1030.36"
       style="opacity:0.00100002;fill:currentColor;fill-opacity:1;stroke:none;stroke-width:2;stroke-linecap:round;stroke-linejoin:round;stroke-miterlimit:4;stroke-dasharray:none;stroke-opacity:1" />
    <path
       id="path5975"
       class="ColorScheme-Text"
       d="m 11,1034.3622 c -2.216,0 -4,1.8216 -4,4.0625 v 1.9375 H 6 c -0.554,0 -1,0.446 -1,1 v 6 c 0,0.554 0.446,1 1,1 h 10 c 0.554,0 1,-0.446 1,-1 v -6 c 0,-0.554 -0.446,-1 -1,-1 h -1 v -1.9375 c 0,-2.24 -1.784,-4.0625 -4,-4.0625 z m 0,2 c 1.108,0 2,0.892 2,2 v 2 H 9 v -2 c 0,-1.108 0.892,-2 2,-2 z"
       style="fill:#ffffff;fill-opacity:1"
       inkscape:connector-curvature="0" />
  </g>
  <g
     id="g1109"
     transform="translate(0,1.0000005)" />
  <g
     id="system-suspend">
    <rect
       ry="0"
       rx="0"
       y="0"
       x="-162"
       height="32"
       width="32"
       id="rect1127"
       style="opacity:0;fill:#000000;fill-opacity:1;fill-rule:evenodd;stroke:none;stroke-width:2;stroke-linecap:round;stroke-linejoin:round;stroke-miterlimit:4;stroke-dasharray:none;stroke-opacity:1;paint-order:fill markers stroke" />
    <g
       transform="translate(-1,33.5)"
       id="g1009">
      <circle
         transform="scale(1,-1)"
         id="circle1204"
         style="fill:url(#linearGradient4672);fill-opacity:1;stroke-width:1.94116533;paint-order:stroke markers fill"
         r="16"
         cy="17.5"
         cx="-145" />
      <g
         id="g1000">
        <g
           id="g983">
          <rect
             style="opacity:1;fill:#323232;fill-opacity:1;fill-rule:evenodd;stroke:none;stroke-width:2;stroke-linecap:round;stroke-linejoin:miter;stroke-miterlimit:4;stroke-dasharray:none;stroke-dashoffset:3;stroke-opacity:1;paint-order:stroke fill markers"
             id="rect1015"
             width="8"
             height="2"
             x="-145"
             y="-20"
             ry="1" />
          <rect
             transform="scale(1,-1)"
             y="23"
             x="-144.99998"
             height="1.9999856"
             width="6.9999847"
             id="rect1017"
             style="opacity:1;fill:#323232;fill-opacity:1;fill-rule:evenodd;stroke:none;stroke-width:1.87081993;stroke-linecap:round;stroke-linejoin:miter;stroke-miterlimit:4;stroke-dasharray:none;stroke-dashoffset:3;stroke-opacity:1;paint-order:stroke fill markers"
             ry="0.99999279" />
          <rect
             ry="1.0069671"
             y="-116.26537"
             x="-89.384163"
             height="2.0139341"
             width="9.0627041"
             id="rect978"
             style="opacity:1;fill:#323232;fill-opacity:1;fill-rule:evenodd;stroke:none;stroke-width:2.13609982;stroke-linecap:round;stroke-linejoin:miter;stroke-miterlimit:4;stroke-dasharray:none;stroke-dashoffset:3;stroke-opacity:1;paint-order:stroke fill markers"
             transform="rotate(-45)" />
        </g>
        <path
           d="m 12.499984,-136.33972 a 10.000031,10.000031 0 0 1 -4.8480925,-10.39677 10.000031,10.000031 0 0 1 8.1116215,-8.11162 10.000031,10.000031 0 0 1 10.396768,4.84809"
           sodipodi:open="true"
           sodipodi:end="5.7595865"
           sodipodi:start="2.0943951"
           sodipodi:ry="10.000031"
           sodipodi:rx="10.000031"
           sodipodi:cy="-145"
           sodipodi:cx="17.5"
           sodipodi:type="arc"
           id="circle989"
           style="opacity:1;fill:none;fill-opacity:1;fill-rule:evenodd;stroke:#323232;stroke-width:2;stroke-linecap:round;stroke-linejoin:miter;stroke-miterlimit:4;stroke-dasharray:none;stroke-dashoffset:3;stroke-opacity:1;paint-order:stroke fill markers"
           transform="rotate(-90)" />
      </g>
    </g>
  </g>
  <g
     id="system-reboot"
     transform="translate(-0.18847656)">
    <rect
       style="opacity:0;fill:#000000;fill-opacity:1;fill-rule:evenodd;stroke:none;stroke-width:2;stroke-linecap:round;stroke-linejoin:round;stroke-miterlimit:4;stroke-dasharray:none;stroke-opacity:1;paint-order:fill markers stroke"
       id="rect1129"
       width="32"
       height="32"
       x="-121.81152"
       y="0"
       rx="0"
       ry="0" />
    <g
       transform="translate(-0.81152344)"
       id="g1055">
      <circle
         transform="scale(1,-1)"
         id="circle1043"
         style="fill:url(#linearGradient1045);fill-opacity:1;stroke-width:1.94116533;paint-order:stroke markers fill"
         r="16"
         cy="-16"
         cx="-105" />
      <g
         id="g1041"
         transform="translate(-5,57.99981)">
        <rect
           transform="rotate(-90)"
           ry="1"
           y="-95"
           x="45"
           height="2"
           width="6"
           id="rect1036"
           style="opacity:1;fill:#323232;fill-opacity:1;fill-rule:evenodd;stroke:none;stroke-width:1.73205078;stroke-linecap:round;stroke-linejoin:miter;stroke-miterlimit:4;stroke-dasharray:none;stroke-dashoffset:3;stroke-opacity:1;paint-order:stroke fill markers" />
        <rect
           style="opacity:1;fill:#323232;fill-opacity:1;fill-rule:evenodd;stroke:none;stroke-width:1.73205078;stroke-linecap:round;stroke-linejoin:miter;stroke-miterlimit:4;stroke-dasharray:none;stroke-dashoffset:3;stroke-opacity:1;paint-order:stroke fill markers"
           id="rect1072"
           width="6"
           height="2"
           x="-95"
           y="-51"
           ry="1" />
        <path
           d="m 49.07106,-92.92891 a 10.000031,10.000031 0 0 1 -12.071106,1.589191 10.000031,10.000031 0 0 1 -4.659273,-11.248481 10.000031,10.000031 0 0 1 9.659288,-7.41183 10.000031,10.000031 0 0 1 9.659289,7.41183"
           sodipodi:open="true"
           sodipodi:end="6.0213859"
           sodipodi:start="0.78539816"
           sodipodi:ry="10.000031"
           sodipodi:rx="10.000031"
           sodipodi:cy="-100"
           sodipodi:cx="41.999969"
           sodipodi:type="arc"
           id="circle1030"
           style="opacity:1;fill:none;fill-opacity:1;fill-rule:evenodd;stroke:#323232;stroke-width:2;stroke-linecap:round;stroke-linejoin:miter;stroke-miterlimit:4;stroke-dasharray:none;stroke-dashoffset:3;stroke-opacity:1;paint-order:stroke fill markers"
           transform="rotate(-90)" />
      </g>
    </g>
  </g>
  <g
     id="system-shutdown">
    <rect
       ry="0"
       rx="0"
       y="0"
       x="-80"
       height="32"
       width="32"
       id="rect1131"
       style="opacity:0;fill:#000000;fill-opacity:1;fill-rule:evenodd;stroke:none;stroke-width:2;stroke-linecap:round;stroke-linejoin:round;stroke-miterlimit:4;stroke-dasharray:none;stroke-opacity:1;paint-order:fill markers stroke" />
    <g
       transform="translate(-3.0005837,44)"
       id="g1078">
      <circle
         cx="-60.999416"
         cy="28"
         r="16"
         style="fill:url(#linearGradient993);fill-opacity:1;stroke-width:1.94116533;paint-order:stroke markers fill"
         id="circle991"
         transform="scale(1,-1)" />
      <g
         id="g1134"
         transform="translate(8.0005835)">
        <rect
           transform="rotate(90)"
           ry="1"
           y="67.99942"
           x="-39"
           height="2"
           width="10"
           id="rect1098"
           style="opacity:1;fill:#323232;fill-opacity:1;fill-rule:evenodd;stroke:none;stroke-width:2.23606801;stroke-linecap:round;stroke-linejoin:miter;stroke-miterlimit:4;stroke-dasharray:none;stroke-dashoffset:3;stroke-opacity:1;paint-order:stroke fill markers" />
        <path
           style="opacity:1;fill:none;fill-opacity:1;fill-rule:evenodd;stroke:#323232;stroke-width:2;stroke-linecap:round;stroke-linejoin:miter;stroke-miterlimit:4;stroke-dasharray:none;stroke-dashoffset:3;stroke-opacity:1;paint-order:stroke fill markers"
           id="path1108"
           sodipodi:type="arc"
           sodipodi:cx="-69"
           sodipodi:cy="-28.000031"
           sodipodi:rx="10.000031"
           sodipodi:ry="10.000031"
           sodipodi:start="5.4977871"
           sodipodi:end="3.9269908"
           sodipodi:open="true"
           d="m -61.92891,-35.071121 a 10.000031,10.000031 0 0 1 2.167735,10.897937 10.000031,10.000031 0 0 1 -9.238825,6.173185 10.000031,10.000031 0 0 1 -9.238824,-6.173185 10.000031,10.000031 0 0 1 2.167734,-10.897936" />
      </g>
    </g>
  </g>
  <g
     id="system-suspend-hibernate">
    <rect
       style="opacity:0;fill:#000000;fill-opacity:1;fill-rule:evenodd;stroke:none;stroke-width:2;stroke-linecap:round;stroke-linejoin:round;stroke-miterlimit:4;stroke-dasharray:none;stroke-opacity:1;paint-order:fill markers stroke"
       id="rect1133"
       width="32"
       height="32"
       x="-40"
       y="0"
       rx="0"
       ry="0" />
    <g
       transform="translate(2,44)"
       id="g1118">
      <circle
         transform="scale(1,-1)"
         id="circle1070"
         style="fill:url(#linearGradient1072);fill-opacity:1;stroke-width:1.94116533;paint-order:stroke markers fill"
         r="16"
         cy="28"
         cx="-26" />
      <g
         id="g1102">
        <path
           id="path1155"
           style="opacity:1;fill:none;fill-opacity:1;fill-rule:evenodd;stroke:#323232;stroke-width:2;stroke-linecap:round;stroke-linejoin:miter;stroke-miterlimit:4;stroke-dasharray:none;stroke-dashoffset:3;stroke-opacity:1;paint-order:stroke fill markers"
           sodipodi:type="arc"
           sodipodi:cx="-26"
           sodipodi:cy="-28"
           sodipodi:rx="10.000031"
           sodipodi:ry="10.000031"
           sodipodi:start="0"
           sodipodi:end="3.1415927"
           sodipodi:open="true"
           d="m -15.999969,-28 a 10.000031,10.000031 0 0 1 -5.000015,8.660281 10.000031,10.000031 0 0 1 -10.000032,0 A 10.000031,10.000031 0 0 1 -36.000031,-28" />
        <path
           id="path1175"
           p-id="8143"
           d="m -25.645414,-29.965942 c -0.817196,0 -1.77211,-0.377655 -1.77211,-1.441104 0,-0.874037 0.908157,-1.120045 2.056674,-1.430629 0.409629,-0.111974 1.039822,-0.282991 1.346864,-0.457026 -0.416173,-0.204835 -1.367963,-0.388721 -2.036276,-0.517867 -1.881263,-0.364151 -2.784701,-0.577543 -2.784701,-1.436231 0,-1.698774 4.96758,-2.401201 5.315684,-2.401201 0.195346,0 0.354242,0.215264 0.354242,0.480376 0,0.265117 -0.158858,0.47977 -0.354242,0.47977 -1.045031,0 -3.866255,0.787249 -4.509825,1.385768 0.388951,0.214048 1.386076,0.405318 2.079366,0.540633 1.881067,0.363517 2.784701,0.576913 2.784701,1.435576 0,0.873965 -0.908182,1.119973 -2.05667,1.430629 -0.482709,0.131029 -1.271538,0.345042 -1.47712,0.55169 0.08213,0.254617 0.660374,0.418878 1.053428,0.418878 0.195422,0 0.35428,0.215264 0.35428,0.480377 -3.3e-5,0.264435 -0.158895,0.480349 -0.35428,0.480349 z"
           inkscape:connector-curvature="0"
           style="fill:#323232;fill-opacity:1;stroke:#323232;stroke-width:0.69999999;stroke-miterlimit:4;stroke-dasharray:none;stroke-opacity:1"
           sodipodi:nodetypes="cscccssssccsccsccc" />
      </g>
    </g>
  </g>
  <g
     id="system-log-out">
    <rect
       ry="0"
       rx="0"
       y="5.5000001e-08"
       x="-1.25e-07"
       height="32"
       width="32"
       id="rect950"
       style="opacity:0;fill:#000000;fill-opacity:1;fill-rule:evenodd;stroke:none;stroke-width:2;stroke-linecap:round;stroke-linejoin:round;stroke-miterlimit:4;stroke-dasharray:none;stroke-opacity:1;paint-order:fill markers stroke" />
    <g
       transform="translate(1,40)"
       id="g1166">
      <circle
         cx="15"
         cy="24"
         r="16"
         style="fill:url(#linearGradient1112);fill-opacity:1;stroke-width:1.94116533;paint-order:stroke markers fill"
         id="circle1110"
         transform="scale(1,-1)" />
      <g
         id="g1381"
         transform="translate(-83.998245,8.002224)">
        <g
           transform="translate(-45.000007,-13.002225)"
           id="g895">
          <rect
             ry="1"
             y="-20"
             x="143"
             height="2"
             width="10"
             id="rect881"
             style="opacity:1;fill:#323232;fill-opacity:1;fill-rule:evenodd;stroke:none;stroke-width:2.23606801;stroke-linecap:round;stroke-linejoin:miter;stroke-miterlimit:4;stroke-dasharray:none;stroke-dashoffset:3;stroke-opacity:1;paint-order:stroke fill markers" />
          <g
             id="g889"
             transform="translate(-6.5355314,-2.1213214)">
            <rect
               ry="1"
               transform="rotate(45)"
               y="-125.74181"
               x="93.87175"
               height="2"
               width="8"
               id="rect883"
               style="opacity:1;fill:#323232;fill-opacity:1;fill-rule:evenodd;stroke:none;stroke-width:2;stroke-linecap:round;stroke-linejoin:miter;stroke-miterlimit:4;stroke-dasharray:none;stroke-dashoffset:3;stroke-opacity:1;paint-order:stroke fill markers" />
            <rect
               ry="1"
               style="opacity:1;fill:#323232;fill-opacity:1;fill-rule:evenodd;stroke:none;stroke-width:2;stroke-linecap:round;stroke-linejoin:miter;stroke-miterlimit:4;stroke-dasharray:none;stroke-dashoffset:3;stroke-opacity:1;paint-order:stroke fill markers"
               id="rect885"
               width="8"
               height="2"
               x="117.74181"
               y="-101.87175"
               transform="matrix(0.70710678,-0.70710678,-0.70710678,-0.70710678,0,0)" />
          </g>
        </g>
        <path
           id="path1321"
           style="opacity:1;fill:none;fill-opacity:1;fill-rule:evenodd;stroke:#323232;stroke-width:2;stroke-linecap:round;stroke-linejoin:miter;stroke-miterlimit:4;stroke-dasharray:none;stroke-dashoffset:3;stroke-opacity:1;paint-order:stroke fill markers"
           d="m 101.58499,-22.342935 a 10.000031,10.000031 0 0 1 -10.77974,-3.923506 10.000031,10.000031 0 0 1 -10e-7,-11.471565 10.000031,10.000031 0 0 1 10.779741,-3.923507"
           sodipodi:type="arc"
           sodipodi:open="true"
           sodipodi:start="1.3089969"
           sodipodi:end="4.9741884"
           sodipodi:ry="10.000031"
           sodipodi:rx="10.000031"
           sodipodi:cy="-32.002224"
           sodipodi:cx="98.996796" />
      </g>
    </g>
  </g>
  <g
     id="22-22-system-log-out">
    <rect
       transform="scale(-1,1)"
       id="rect4242"
       width="22"
       height="22"
       x="-27.000002"
       y="41.997807"
       style="opacity:0.00100002;fill:currentColor;fill-opacity:1;stroke:none;stroke-width:2;stroke-linecap:round;stroke-linejoin:round;stroke-miterlimit:4;stroke-dasharray:none;stroke-opacity:1" />
    <g
       id="g1216">
      <path
         d="m 17.742697,57.831255 a 5.3630223,5.0039539 0 0 1 -5.781183,-1.963298 5.3630223,5.0039539 0 0 1 0,-5.740301 5.3630223,5.0039539 0 0 1 5.781183,-1.963298"
         sodipodi:open="true"
         sodipodi:end="4.9741884"
         sodipodi:start="1.3089969"
         sodipodi:ry="5.0039539"
         sodipodi:rx="5.3630223"
         sodipodi:cy="52.997807"
         sodipodi:cx="16.354645"
         sodipodi:type="arc"
         id="path1405"
         style="opacity:1;fill:none;fill-opacity:1;fill-rule:evenodd;stroke:#ffffff;stroke-width:2;stroke-linecap:round;stroke-linejoin:miter;stroke-miterlimit:4;stroke-dasharray:none;stroke-dashoffset:3;stroke-opacity:1;paint-order:stroke fill markers" />
      <g
         id="g1209">
        <rect
           ry="1"
           y="52"
           x="15"
           height="2"
           width="7"
           id="rect1395"
           style="opacity:1;fill:#ffffff;fill-opacity:1;fill-rule:evenodd;stroke:none;stroke-width:1.87082875;stroke-linecap:round;stroke-linejoin:miter;stroke-miterlimit:4;stroke-dasharray:none;stroke-dashoffset:3;stroke-opacity:1;paint-order:stroke fill markers" />
        <rect
           transform="rotate(-45)"
           style="opacity:1;fill:#ffffff;fill-opacity:1;fill-rule:evenodd;stroke:none;stroke-width:1.58113897;stroke-linecap:round;stroke-linejoin:miter;stroke-miterlimit:4;stroke-dasharray:none;stroke-dashoffset:3;stroke-opacity:1;paint-order:stroke fill markers"
           id="rect1202"
           width="5"
           height="2"
           x="-26.628704"
           y="51.325901"
           ry="1" />
        <rect
           ry="1"
           y="-23.627417"
           x="48.324615"
           height="2"
           width="5"
           id="rect1204"
           style="opacity:1;fill:#ffffff;fill-opacity:1;fill-rule:evenodd;stroke:none;stroke-width:1.58113897;stroke-linecap:round;stroke-linejoin:miter;stroke-miterlimit:4;stroke-dasharray:none;stroke-dashoffset:3;stroke-opacity:1;paint-order:stroke fill markers"
           transform="matrix(0.70710678,0.70710678,0.70710678,-0.70710678,0,0)" />
      </g>
    </g>
  </g>
  <g
     id="system-lock-screen"
     transform="translate(0.31152344)">
    <rect
       style="opacity:0;fill:#000000;fill-opacity:1;fill-rule:evenodd;stroke:none;stroke-width:2;stroke-linecap:round;stroke-linejoin:round;stroke-miterlimit:4;stroke-dasharray:none;stroke-opacity:1;paint-order:fill markers stroke"
       id="rect1209"
       width="32"
       height="32"
       x="39.688477"
       y="0"
       rx="0"
       ry="0" />
    <g
       transform="translate(0.68847656,35)"
       id="g1243">
      <circle
         transform="scale(1,-1)"
         id="circle1136"
         style="fill:url(#linearGradient1138);fill-opacity:1;stroke-width:1.94116533;paint-order:stroke markers fill"
         r="16"
         cy="19"
         cx="55" />
      <g
         id="g1308"
         transform="translate(33.000044,9.9995602)">
        <g
           id="g1302">
          <circle
             id="path1271"
             style="opacity:1;fill:none;fill-opacity:1;fill-rule:evenodd;stroke:#323232;stroke-width:2;stroke-linecap:round;stroke-linejoin:miter;stroke-miterlimit:4;stroke-dasharray:none;stroke-dashoffset:3;stroke-opacity:1;paint-order:stroke fill markers"
             transform="rotate(-90)"
             d="m 28.998551,31.999988 a 10.000031,10.000031 0 0 1 -8.660282,-5.000016 10.000031,10.000031 0 0 1 0,-10.000032 10.000031,10.000031 0 0 1 8.660282,-5.000015"
             sodipodi:type="arc"
             sodipodi:open="true"
             sodipodi:start="1.5707963"
             sodipodi:end="4.712389"
             sodipodi:ry="10.000031"
             sodipodi:rx="10.000031"
             sodipodi:cy="21.999956"
             sodipodi:cx="28.99855" />
          <path
             transform="rotate(60)"
             style="opacity:1;fill:none;fill-opacity:1;fill-rule:evenodd;stroke:#323232;stroke-width:2;stroke-linecap:round;stroke-linejoin:miter;stroke-miterlimit:4;stroke-dasharray:none;stroke-dashoffset:3;stroke-opacity:1;paint-order:stroke fill markers"
             id="path1292"
             sodipodi:type="arc"
             sodipodi:cx="-17.996204"
             sodipodi:cy="-35.793495"
             sodipodi:rx="5.5240893"
             sodipodi:ry="5.5240893"
             sodipodi:start="1.344201"
             sodipodi:end="6.0213859"
             sodipodi:open="true"
             d="m -16.755156,-30.410618 a 5.5240893,5.5240893 0 0 1 -6.608991,-4.078749 5.5240893,5.5240893 0 0 1 4.000915,-6.656399 5.5240893,5.5240893 0 0 1 6.702888,3.922531" />
          <circle
             style="opacity:1;fill:#323232;fill-opacity:1;fill-rule:evenodd;stroke:none;stroke-width:2.66666603;stroke-linecap:round;stroke-linejoin:miter;stroke-miterlimit:4;stroke-dasharray:none;stroke-dashoffset:3;stroke-opacity:1;paint-order:stroke fill markers"
             id="circle1297"
             cx="21.999956"
             cy="-26"
             r="1.9999996" />
        </g>
      </g>
    </g>
  </g>
  <g
     id="system-switch-user">
    <rect
       ry="0"
       rx="0"
       y="0"
       x="80"
       height="32"
       width="32"
       id="rect1211"
       style="opacity:0;fill:#000000;fill-opacity:1;fill-rule:evenodd;stroke:none;stroke-width:2;stroke-linecap:round;stroke-linejoin:round;stroke-miterlimit:4;stroke-dasharray:none;stroke-opacity:1;paint-order:fill markers stroke" />
    <g
       transform="translate(-3,39)"
       id="g1276">
      <circle
         cx="99"
         cy="23"
         r="16"
         style="fill:url(#linearGradient1235);fill-opacity:1;stroke-width:1.94116533;paint-order:stroke markers fill"
         id="circle1233"
         transform="scale(1,-1)" />
      <g
         id="g1262"
         transform="translate(-9.4286264e-5,1.9111947e-4)">
        <g
           transform="translate(48.00001,5.9998369)"
           id="g1361">
          <path
             style="opacity:1;fill:none;fill-opacity:1;fill-rule:evenodd;stroke:#323232;stroke-width:2;stroke-linecap:round;stroke-linejoin:miter;stroke-miterlimit:4;stroke-dasharray:none;stroke-dashoffset:3;stroke-opacity:1;paint-order:stroke fill markers"
             id="circle1357"
             sodipodi:type="arc"
             sodipodi:cx="51.999985"
             sodipodi:cy="-29.999872"
             sodipodi:rx="9.0000896"
             sodipodi:ry="9.0000896"
             sodipodi:start="3.5940032"
             sodipodi:end="1.1185587"
             d="m 43.90534,-33.934125 a 9.0000896,9.0000896 0 0 1 9.447264,-4.963614 9.0000896,9.0000896 0 0 1 7.545481,7.546786 9.0000896,9.0000896 0 0 1 -4.965247,9.446405"
             sodipodi:open="true" />
          <circle
             id="path1335"
             style="opacity:1;fill:none;fill-opacity:1;fill-rule:evenodd;stroke:#323232;stroke-width:2;stroke-linecap:round;stroke-linejoin:miter;stroke-miterlimit:4;stroke-dasharray:none;stroke-dashoffset:3;stroke-opacity:1;paint-order:stroke fill markers"
             cx="49.5"
             cy="-27.5"
             r="8.5000582" />
        </g>
      </g>
    </g>
  </g>
</svg>
