<?xml version="1.0" encoding="UTF-8" standalone="no"?>
<svg
   xmlns:dc="http://purl.org/dc/elements/1.1/"
   xmlns:cc="http://creativecommons.org/ns#"
   xmlns:rdf="http://www.w3.org/1999/02/22-rdf-syntax-ns#"
   xmlns:svg="http://www.w3.org/2000/svg"
   xmlns="http://www.w3.org/2000/svg"
   xmlns:xlink="http://www.w3.org/1999/xlink"
   xmlns:sodipodi="http://sodipodi.sourceforge.net/DTD/sodipodi-0.dtd"
   xmlns:inkscape="http://www.inkscape.org/namespaces/inkscape"
   width="32"
   height="32"
   version="1.1"
   id="svg60"
   sodipodi:docname="computer.svg"
   inkscape:version="0.92.4 5da689c313, 2019-01-14">
  <metadata
     id="metadata64">
    <rdf:RDF>
      <cc:Work
         rdf:about="">
        <dc:format>image/svg+xml</dc:format>
        <dc:type
           rdf:resource="http://purl.org/dc/dcmitype/StillImage" />
        <dc:title></dc:title>
      </cc:Work>
    </rdf:RDF>
  </metadata>
  <sodipodi:namedview
     pagecolor="#c8c8c8"
     bordercolor="#666666"
     borderopacity="1"
     objecttolerance="10"
     gridtolerance="10"
     guidetolerance="10"
     inkscape:pageopacity="0"
     inkscape:pageshadow="2"
     inkscape:window-width="1920"
     inkscape:window-height="1017"
     id="namedview62"
     showgrid="true"
     inkscape:snap-bbox="true"
     inkscape:bbox-nodes="true"
     inkscape:snap-bbox-edge-midpoints="true"
     inkscape:snap-nodes="true"
     inkscape:object-paths="true"
     inkscape:zoom="8"
     inkscape:cx="49.423714"
     inkscape:cy="-15.246689"
     inkscape:window-x="0"
     inkscape:window-y="38"
     inkscape:window-maximized="1"
     inkscape:current-layer="svg60"
     inkscape:snap-intersection-paths="true"
     inkscape:snap-bbox-midpoints="true"
     inkscape:snap-smooth-nodes="true"
     inkscape:snap-midpoints="true"
     showguides="false">
    <inkscape:grid
       type="xygrid"
       id="grid879" />
  </sodipodi:namedview>
  <defs
     id="defs6">
    <style
       id="current-color-scheme"
       type="text/css">.ColorScheme-Text { color:#dedede; } .ColorScheme-Highlight { color:#5294e2; } .ColorScheme-ButtonBackground { color:#dedede; }</style>
    <filter
       id="a"
       x="-0.035999998"
       y="-0.035999998"
       width="1.072"
       height="1.072"
       style="color-interpolation-filters:sRGB">
      <feGaussianBlur
         stdDeviation="0.435"
         id="feGaussianBlur3" />
    </filter>
    <style
       id="style883"
       type="text/css" />
    <linearGradient
       inkscape:collect="always"
       xlink:href="#linearGradient1343"
       id="linearGradient4672"
       x1="52"
       y1="0"
       x2="52"
       y2="-32"
       gradientUnits="userSpaceOnUse"
       gradientTransform="translate(-36.000001)" />
    <linearGradient
       gradientUnits="userSpaceOnUse"
       gradientTransform="matrix(0.53333333,0,0,0.53333333,46.628051,-10.632912)"
       y2="62"
       y1="2"
       x2="32"
       x1="32"
       id="linearGradient1343">
      <stop
         id="stop3456"
         offset="0"
         stop-color="#f5f6fa" />
      <stop
         id="stop3458"
         offset=".45933"
         stop-color="#e9ecf3" />
      <stop
         id="stop3460"
         offset="1"
         stop-color="#dee2ee" />
    </linearGradient>
    <linearGradient
       inkscape:collect="always"
       xlink:href="#linearGradient1343"
       id="linearGradient889"
       gradientUnits="userSpaceOnUse"
       gradientTransform="translate(49,1)"
       x1="52"
       y1="0"
       x2="52"
       y2="-32" />
  </defs>
  <g
     id="computer">
    <rect
       x="0"
       y="0"
       width="32"
       height="32"
       rx="0"
       ry="0"
       style="opacity:0;stroke-width:2;paint-order:fill markers stroke"
       id="rect38" />
    <circle
       r="16"
       transform="scale(1,-1)"
       id="circle1204"
       style="fill:url(#linearGradient4672);fill-opacity:1;stroke-width:1.94116533;paint-order:stroke markers fill"
       cy="-16"
       cx="16" />
    <g
       transform="translate(35)"
       id="g972">
      <path
         style="opacity:1;fill:#323232;fill-opacity:1;stroke:none;stroke-width:0.8740074;stroke-linecap:round;stroke-linejoin:round;stroke-miterlimit:4;stroke-dasharray:none;stroke-opacity:1"
         d="m -28,7 c -1.108,0 -2,0.892 -2,2 v 11 c 0,1.108 0.892,2 2,2 h 18 c 1.108,0 2,-0.892 2,-2 V 9 C -8,7.892 -8.892,7 -10,7 Z m 1,2 h 16 c 0.554,0 1,0.446 1,1 v 9 c 0,0.554 -0.446,1 -1,1 h -16 c -0.554,0 -1,-0.446 -1,-1 v -9 c 0,-0.554 0.446,-1 1,-1 z"
         id="rect897"
         inkscape:connector-curvature="0" />
      <rect
         style="opacity:1;fill:#323232;fill-opacity:1;stroke:none;stroke-width:0.83405769;stroke-linecap:round;stroke-linejoin:round;stroke-miterlimit:4;stroke-dasharray:none;stroke-opacity:1"
         id="rect909"
         width="16"
         height="2"
         x="-27"
         y="25"
         ry="1" />
      <g
         id="g951"
         transform="translate(-1)">
        <rect
           ry="0"
           y="22"
           x="-21"
           height="3"
           width="2"
           id="rect911"
           style="opacity:1;fill:#323232;fill-opacity:1;stroke:none;stroke-width:1.22474492;stroke-linecap:round;stroke-linejoin:round;stroke-miterlimit:4;stroke-dasharray:none;stroke-opacity:1" />
        <rect
           style="opacity:1;fill:#323232;fill-opacity:1;stroke:none;stroke-width:1.22474492;stroke-linecap:round;stroke-linejoin:round;stroke-miterlimit:4;stroke-dasharray:none;stroke-opacity:1"
           id="rect913"
           width="2"
           height="3"
           x="-17"
           y="22"
           ry="0" />
      </g>
    </g>
  </g>
  <g
     id="22-22-computer">
    <rect
       style="color:#bebebe;opacity:0;stroke-width:2"
       y="37"
       id="rect23"
       transform="scale(-1,1)"
       x="-27"
       width="22"
       height="22" />
    <g
       id="g986">
      <path
         style="opacity:1;fill:#ffffff;fill-opacity:1;stroke:none;stroke-width:0.77579117;stroke-linecap:round;stroke-linejoin:round;stroke-miterlimit:4;stroke-dasharray:none;stroke-opacity:1"
         d="m 7,40 c -0.554,0 -1,0.446 -1,1 v 11 c 0,0.554 0.446,1 1,1 h 18 c 0.554,0 1,-0.446 1,-1 V 41 c 0,-0.554 -0.446,-1 -1,-1 z m 0,1 H 25 V 52 H 7 Z"
         id="rect953"
         inkscape:connector-curvature="0" />
      <g
         id="g966"
         transform="translate(22)">
        <rect
           style="opacity:1;fill:#ffffff;fill-opacity:1;stroke:none;stroke-width:0.55167735;stroke-linecap:round;stroke-linejoin:round;stroke-miterlimit:4;stroke-dasharray:none;stroke-opacity:1"
           id="rect955"
           width="14"
           height="1"
           x="-13"
           y="55"
           ry="0.5" />
        <rect
           style="opacity:1;fill:#ffffff;fill-opacity:1;stroke:none;stroke-width:0.70710683;stroke-linecap:round;stroke-linejoin:round;stroke-miterlimit:4;stroke-dasharray:none;stroke-opacity:1"
           id="rect957"
           width="1"
           height="2"
           x="-8"
           y="53"
           ry="0" />
        <rect
           ry="0"
           y="53"
           x="-5"
           height="2"
           width="1"
           id="rect959"
           style="opacity:1;fill:#ffffff;fill-opacity:1;stroke:none;stroke-width:0.70710683;stroke-linecap:round;stroke-linejoin:round;stroke-miterlimit:4;stroke-dasharray:none;stroke-opacity:1" />
      </g>
    </g>
  </g>
  <g
     id="computer-laptop">
    <rect
       id="rect928"
       style="opacity:0;stroke-width:2;paint-order:fill markers stroke"
       ry="0"
       rx="0"
       height="32"
       width="32"
       y="0"
       x="50" />
    <g
       transform="translate(-35,1)"
       id="g920">
      <circle
         transform="scale(1,-1)"
         id="circle871"
         style="fill:url(#linearGradient889);fill-opacity:1;stroke-width:1.94116533;paint-order:stroke markers fill"
         r="16"
         cy="-15"
         cx="101" />
      <g
         id="g914">
        <path
           style="opacity:1;fill:#323232;fill-opacity:1;stroke:none;stroke-width:0.8740074;stroke-linecap:round;stroke-linejoin:round;stroke-miterlimit:4;stroke-dasharray:none;stroke-opacity:1"
           d="m 92,6 c -1.108,0 -2,0.892 -2,2 v 11 c 0,1.108 0.892,2 2,2 h 18 c 1.108,0 2,-0.892 2,-2 V 8 c 0,-1.108 -0.892,-2 -2,-2 z m 1,2 h 16 c 0.554,0 1,0.446 1,1 v 9 c 0,0.554 -0.446,1 -1,1 H 93 c -0.554,0 -1,-0.446 -1,-1 V 9 c 0,-0.554 0.446,-1 1,-1 z"
           id="path873"
           inkscape:connector-curvature="0" />
        <rect
           style="opacity:1;fill:#323232;fill-opacity:1;stroke:none;stroke-width:0.97801936;stroke-linecap:round;stroke-linejoin:round;stroke-miterlimit:4;stroke-dasharray:none;stroke-opacity:1"
           id="rect875"
           width="22"
           height="2"
           x="90"
           y="23"
           ry="1" />
      </g>
    </g>
  </g>
  <g
     id="16-16-computer">
    <rect
       style="color:#bebebe;fill:none"
       id="rect16"
       transform="scale(-1,1)"
       x="-24"
       y="65"
       width="16"
       height="16" />
    <rect
       style="color:#bebebe;opacity:0;stroke-width:3"
       id="rect18"
       transform="scale(-1,1)"
       x="-24"
       y="65"
       width="16"
       height="16" />
    <g
       id="g1033">
      <path
         style="opacity:1;fill:#ffffff;fill-opacity:1;stroke:none;stroke-width:0.6382848;stroke-linecap:round;stroke-linejoin:round;stroke-miterlimit:4;stroke-dasharray:none;stroke-opacity:1"
         d="m 9,66 c -0.554,0 -1,0.446 -1,1 v 9 c 0,0.554 0.446,1 1,1 h 14 c 0.554,0 1,-0.446 1,-1 v -9 c 0,-0.554 -0.446,-1 -1,-1 z m 0,1 h 14 v 9 H 9 Z"
         id="rect968"
         inkscape:connector-curvature="0" />
      <rect
         style="opacity:1;fill:#ffffff;fill-opacity:1;stroke:none;stroke-width:0.46625248;stroke-linecap:round;stroke-linejoin:round;stroke-miterlimit:4;stroke-dasharray:none;stroke-opacity:1"
         id="rect970"
         width="10"
         height="1"
         x="11"
         y="79"
         ry="0.5" />
      <g
         id="g1025"
         transform="translate(21.5)">
        <rect
           ry="0"
           y="77"
           x="-7"
           height="2"
           width="1"
           id="rect972"
           style="opacity:1;fill:#ffffff;fill-opacity:1;stroke:none;stroke-width:0.70710683;stroke-linecap:round;stroke-linejoin:round;stroke-miterlimit:4;stroke-dasharray:none;stroke-opacity:1" />
        <rect
           style="opacity:1;fill:#ffffff;fill-opacity:1;stroke:none;stroke-width:0.70710683;stroke-linecap:round;stroke-linejoin:round;stroke-miterlimit:4;stroke-dasharray:none;stroke-opacity:1"
           id="rect974"
           width="1"
           height="2"
           x="-5"
           y="77"
           ry="0" />
      </g>
    </g>
  </g>
  <g
     id="22-22-computer-laptop"
     transform="translate(52)">
    <rect
       height="22"
       width="22"
       x="-27"
       transform="scale(-1,1)"
       id="rect1051"
       y="37"
       style="color:#bebebe;opacity:0;stroke-width:2" />
    <g
       id="g1063">
      <path
         inkscape:connector-curvature="0"
         id="path1053"
         d="m 7,40 c -0.554,0 -1,0.446 -1,1 v 11 c 0,0.554 0.446,1 1,1 h 18 c 0.554,0 1,-0.446 1,-1 V 41 c 0,-0.554 -0.446,-1 -1,-1 z m 0,1 H 25 V 52 H 7 Z"
         style="opacity:1;fill:#ffffff;fill-opacity:1;stroke:none;stroke-width:0.77579117;stroke-linecap:round;stroke-linejoin:round;stroke-miterlimit:4;stroke-dasharray:none;stroke-opacity:1" />
      <g
         transform="translate(22)"
         id="g1061">
        <rect
           ry="0.5"
           y="55"
           x="-16"
           height="1"
           width="20"
           id="rect1055"
           style="opacity:1;fill:#ffffff;fill-opacity:1;stroke:none;stroke-width:0.65938056;stroke-linecap:round;stroke-linejoin:round;stroke-miterlimit:4;stroke-dasharray:none;stroke-opacity:1" />
      </g>
    </g>
  </g>
  <g
     id="16-16-computer-laptop"
     transform="translate(51)">
    <rect
       height="16"
       width="16"
       y="65"
       x="-24"
       transform="scale(-1,1)"
       id="rect1068"
       style="color:#bebebe;fill:none" />
    <rect
       height="16"
       width="16"
       y="65"
       x="-24"
       transform="scale(-1,1)"
       id="rect1070"
       style="color:#bebebe;opacity:0;stroke-width:3" />
    <g
       id="g1082">
      <path
         inkscape:connector-curvature="0"
         id="path1072"
         d="m 9,66 c -0.554,0 -1,0.446 -1,1 v 9 c 0,0.554 0.446,1 1,1 h 14 c 0.554,0 1,-0.446 1,-1 v -9 c 0,-0.554 -0.446,-1 -1,-1 z m 0,1 h 14 v 9 H 9 Z"
         style="opacity:1;fill:#ffffff;fill-opacity:1;stroke:none;stroke-width:0.6382848;stroke-linecap:round;stroke-linejoin:round;stroke-miterlimit:4;stroke-dasharray:none;stroke-opacity:1" />
      <rect
         ry="0.5"
         y="79"
         x="8"
         height="1"
         width="16"
         id="rect1074"
         style="opacity:1;fill:#ffffff;fill-opacity:1;stroke:none;stroke-width:0.58976793;stroke-linecap:round;stroke-linejoin:round;stroke-miterlimit:4;stroke-dasharray:none;stroke-opacity:1" />
      <g
         transform="translate(21.5)"
         id="g1080" />
    </g>
  </g>
</svg>
