<?xml version="1.0" encoding="UTF-8" standalone="no"?>
<svg
   xmlns:dc="http://purl.org/dc/elements/1.1/"
   xmlns:cc="http://creativecommons.org/ns#"
   xmlns:rdf="http://www.w3.org/1999/02/22-rdf-syntax-ns#"
   xmlns:svg="http://www.w3.org/2000/svg"
   xmlns="http://www.w3.org/2000/svg"
   xmlns:sodipodi="http://sodipodi.sourceforge.net/DTD/sodipodi-0.dtd"
   xmlns:inkscape="http://www.inkscape.org/namespaces/inkscape"
   width="22"
   height="22"
   version="1.1"
   id="svg12"
   sodipodi:docname="start.svg"
   inkscape:version="0.92.4 5da689c313, 2019-01-14">
  <metadata
     id="metadata16">
    <rdf:RDF>
      <cc:Work
         rdf:about="">
        <dc:format>image/svg+xml</dc:format>
        <dc:type
           rdf:resource="http://purl.org/dc/dcmitype/StillImage" />
        <dc:title />
      </cc:Work>
    </rdf:RDF>
  </metadata>
  <sodipodi:namedview
     pagecolor="#c8c8c8"
     bordercolor="#666666"
     borderopacity="1"
     objecttolerance="10"
     gridtolerance="10"
     guidetolerance="10"
     inkscape:pageopacity="0"
     inkscape:pageshadow="2"
     inkscape:window-width="1920"
     inkscape:window-height="1019"
     id="namedview14"
     showgrid="true"
     inkscape:zoom="15.170655"
     inkscape:cx="-3.7372722"
     inkscape:cy="14.602791"
     inkscape:window-x="0"
     inkscape:window-y="36"
     inkscape:window-maximized="1"
     inkscape:current-layer="svg12"
     inkscape:snap-bbox="true"
     inkscape:bbox-nodes="true"
     inkscape:snap-bbox-edge-midpoints="true">
    <inkscape:grid
       type="xygrid"
       id="grid4539" />
  </sodipodi:namedview>
  <defs
     id="defs7386">
    <style
       id="current-color-scheme"
       type="text/css">
   .ColorScheme-Text { color:#dedede; } .ColorScheme-Highlight { color:#5294e2; } .ColorScheme-ButtonBackground { color:#dedede; }
  </style>
    <style
       id="style823"
       type="text/css" />
  </defs>
  <g
     id="22-22-start-here-kde"
     transform="translate(-0.5)">
    <circle
       r="11"
       cy="11"
       cx="11.5"
       id="path822"
       style="opacity:0;fill:#ffffff;fill-opacity:1;stroke:none;stroke-width:1.24874103;stroke-linecap:round;stroke-linejoin:round;stroke-miterlimit:4;stroke-dasharray:none;stroke-opacity:1;paint-order:normal" />
    <path
       style="fill:#ffffff;fill-opacity:1;stroke-width:0.02217742"
       inkscape:connector-curvature="0"
       d="m 22.5,10.999998 c 0,6.076612 -4.93226,11 -11.01774,11 -5.04758,0 -9.29678,-3.384274 -10.60081,-8.001613 l 4.22258,1.743146 c 0.28387,1.42379 1.54799,2.501612 3.05605,2.501612 1.73871,0 3.18911,-1.437097 3.11371,-3.260081 l 3.74798,-2.670161 c 2.31089,0.05766 4.2492,-1.814113 4.2492,-4.1471775 0,-2.28871 -1.86291,-4.147177 -4.15605,-4.147177 -2.29315,0 -4.15605,1.862903 -4.15605,4.147177 v 0.05323 L 8.33306,12.020163 c -0.6875,-0.03992 -1.36169,0.150806 -1.92943,0.536695 L 0.5,10.117341 C 0.95242,4.4532275 5.69395,1.5e-6 11.48226,1.5e-6 17.56774,1.5e-6 22.5,4.9233885 22.5,11.000002 Z M 7.40605,16.690725 6.05323,16.131852 a 2.3414921,2.3414921 0 0 0 1.20645,1.144356 c 1.19314,0.496774 2.56371,-0.07097 3.06048,-1.259678 0.23952,-0.576613 0.24395,-1.210888 0.004,-1.7875 C 10.08464,13.652418 9.63666,13.199999 9.06005,12.960482 8.48787,12.720966 7.87577,12.729838 7.33464,12.933873 l 1.39718,0.576612 c 0.87823,0.36371 1.29516,1.370565 0.92702,2.248791 -0.36815,0.88266 -1.375,1.295161 -2.25323,0.931452 z m 7.70887,-5.761694 c -1.52581,0 -2.76774,-1.2419365 -2.76774,-2.7633075 0,-1.521371 1.24193,-2.763306 2.76774,-2.763306 1.52581,0 2.76774,1.241935 2.76774,2.763306 0,1.521371 -1.2375,2.7633075 -2.76774,2.7633075 z m 0.004,-0.691936 c 1.14879,0 2.08024,-0.9314515 2.08024,-2.0758065 0,-1.148791 -0.93145,-2.075807 -2.08024,-2.075807 -1.14879,0 -2.08024,0.931452 -2.08024,2.075807 0.004,1.144355 0.93588,2.0758065 2.08024,2.0758065 z"
       p-id="21100"
       id="path827" />
  </g>
  <g
     id="start-here-kde">
    <rect
       style="color:#bebebe;display:inline;overflow:visible;visibility:visible;fill:none;stroke:none;stroke-width:1;marker:none"
       id="rect6336-6"
       width="32"
       height="32"
       x="-39"
       y="-5" />
    <path
       id="path837"
       p-id="21100"
       d="m -12,10.999997 c 0,6.076613 -4.93226,11.000001 -11.01774,11.000001 -5.04758,0 -9.29678,-3.384274 -10.60081,-8.001613 l 4.22258,1.743146 c 0.28387,1.42379 1.54799,2.501612 3.05605,2.501612 1.73871,0 3.18911,-1.437097 3.11371,-3.260081 l 3.74798,-2.670161 c 2.31089,0.05766 4.2492,-1.814113 4.2492,-4.1471775 0,-2.28871 -1.86291,-4.147177 -4.15605,-4.147177 -2.29315,0 -4.15605,1.862903 -4.15605,4.147177 v 0.05323 l -2.62581,3.8012095 c -0.6875,-0.03992 -1.36169,0.150806 -1.92943,0.536695 L -34,10.11734 C -33.54758,4.4532275 -28.80605,1.5e-6 -23.01774,1.5e-6 -16.93226,1.5e-6 -12,4.9233885 -12,11.000002 Z m -15.09395,5.690727 -1.35282,-0.558872 a 2.3414921,2.3414921 0 0 0 1.20645,1.144356 c 1.19314,0.496774 2.56371,-0.07097 3.06048,-1.259678 0.23952,-0.576613 0.24395,-1.210888 0.004,-1.7875 -0.23952,-0.576613 -0.6875,-1.029032 -1.26411,-1.268548 -0.57218,-0.239517 -1.18428,-0.230645 -1.72541,-0.02661 l 1.39718,0.576612 c 0.87823,0.36371 1.29516,1.370565 0.92702,2.248791 -0.36815,0.882661 -1.375,1.295161 -2.25323,0.931452 z m 7.70887,-5.761694 c -1.52581,0 -2.76774,-1.2419355 -2.76774,-2.7633065 0,-1.521371 1.24193,-2.763306 2.76774,-2.763306 1.52581,0 2.76774,1.241935 2.76774,2.763306 0,1.521371 -1.2375,2.7633065 -2.76774,2.7633065 z m 0.004,-0.691936 c 1.14879,0 2.08024,-0.9314505 2.08024,-2.0758055 0,-1.148791 -0.93145,-2.075807 -2.08024,-2.075807 -1.14879,0 -2.08024,0.931452 -2.08024,2.075807 0.004,1.144355 0.93588,2.0758055 2.08024,2.0758055 z"
       inkscape:connector-curvature="0"
       style="fill:#ffffff;fill-opacity:1;stroke-width:0.02217742" />
  </g>
</svg>
